<?xml version="1.0" encoding="utf-8"?>
<svg xmlns="http://www.w3.org/2000/svg" viewBox="0 0 200 90">
  <g transform="matrix(1.702098, 0, 0, 1.702098, -604.123901, -612.430176)">
    <g>
      <linearGradient id="SVGID_00000122720322207494727340000012012371654308670601_" gradientUnits="userSpaceOnUse" x1="354.9286" y1="393.4149" x2="416.9549" y2="393.4149">
        <stop offset="0" style="stop-color:#26C6DA"/>
        <stop offset="1" style="stop-color:#D42AFF"/>
      </linearGradient>
      <polygon style="fill:url(#SVGID_00000122720322207494727340000012012371654308670601_);" points="379.524,407.269 &#xA;&#9;&#9;&#9;&#9;&#9;&#9;363.704,374.717 354.929,374.717 373.103,412.113 416.955,402.052 &#9;&#9;&#9;&#9;&#9;"/>
      <linearGradient id="SVGID_00000049924556643496237820000007533139944374723261_" gradientUnits="userSpaceOnUse" x1="362.9825" y1="385.9622" x2="425.0089" y2="385.9622">
        <stop offset="0" style="stop-color:#26C6DA"/>
        <stop offset="1" style="stop-color:#D42AFF"/>
      </linearGradient>
      <polygon style="fill:url(#SVGID_00000049924556643496237820000007533139944374723261_);" points="387.578,399.816 &#xA;&#9;&#9;&#9;&#9;&#9;&#9;371.758,367.264 362.982,367.264 381.157,404.66 425.009,399.816 &#9;&#9;&#9;&#9;&#9;"/>
      <linearGradient id="SVGID_00000126296175084024625990000004996785348859860097_" gradientUnits="userSpaceOnUse" x1="371.0365" y1="378.5096" x2="472.4319" y2="378.5096">
        <stop offset="0" style="stop-color:#26C6DA"/>
        <stop offset="1" style="stop-color:#D42AFF"/>
      </linearGradient>
      <path style="fill:url(#SVGID_00000126296175084024625990000004996785348859860097_);" d="M470.354,393.052H442.98h-10.33 c-1.147,0-2.078-0.93-2.078-2.078s0.93-2.077,2.078-2.077h9.695h17.203c1.147,0,2.077-0.93,2.077-2.078 c0-1.147-0.93-2.078-2.077-2.078H441.71h-1.274c-1.147,0-2.078-0.93-2.078-2.077s0.93-2.078,2.078-2.078h0.639h3.94 c1.147,0,2.078-0.93,2.078-2.078s-0.93-2.078-2.078-2.078h-4.575h-19.63h-3.602c-1.147,0-2.077-0.93-2.077-2.077 s0.93-2.078,2.077-2.078h1.525h15.856h14.525c1.147,0,2.077-0.93,2.077-2.078s-0.93-2.077-2.077-2.077h-15.16h-4.448 c-1.147,0-2.077-0.93-2.077-2.078c0-1.147,0.93-2.078,2.077-2.078h9.03h20.018c1.147,0,2.077-0.93,2.077-2.077l0,0 c0-1.147-0.93-2.078-2.077-2.078h-20.653H423.95h-52.914l18.174,37.396h36.817h17.587h26.739c1.147,0,2.078-0.93,2.078-2.077 C472.432,393.983,471.502,393.052,470.354,393.052z"/>
    </g>
    <g>
      <path style="fill:#FFFFFF;" d="M402.868,383.682c-0.334-0.783-0.831-1.421-1.491-1.914c-0.659-0.493-1.626-0.952-2.9-1.378 c-2.479-0.783-4.444-1.655-5.894-2.617c-1.449-0.962-2.547-2.317-3.293-4.067c-0.692-1.625-0.74-2.956-0.145-3.995 c0.597-1.039,1.735-1.651,3.417-1.835l-1.33-3.117h2.306l1.342,3.146c1.809,0.251,3.448,0.962,4.918,2.132 c1.471,1.169,2.594,2.688,3.37,4.554l-0.014,0.071h-4.132c-0.486-1.14-1.097-2.021-1.829-2.639 c-0.733-0.618-1.505-0.929-2.316-0.929c-0.832,0-1.349,0.24-1.551,0.718c-0.201,0.479-0.133,1.115,0.205,1.907 c0.32,0.754,0.797,1.366,1.427,1.835c0.63,0.469,1.617,0.931,2.962,1.385c2.494,0.841,4.461,1.74,5.898,2.697 c1.438,0.956,2.523,2.296,3.257,4.017c0.718,1.683,0.772,3.026,0.167,4.031c-0.607,1.005-1.76,1.6-3.459,1.783l1.224,2.871 h-2.306l-1.218-2.856c-1.887-0.184-3.653-0.824-5.3-1.921c-1.648-1.098-2.904-2.709-3.773-4.837l-0.002-0.071h4.133 c0.553,1.295,1.246,2.223,2.079,2.783c0.833,0.561,1.709,0.841,2.628,0.841c0.88,0,1.454-0.234,1.723-0.703 C403.24,385.104,403.206,384.474,402.868,383.682z"/>
    </g>
  </g>
</svg>